<?xml version="1.0" standalone="no"?>
<!DOCTYPE svg PUBLIC "-//W3C//DTD SVG 20010904//EN"
 "http://www.w3.org/TR/2001/REC-SVG-20010904/DTD/svg10.dtd">
<svg version="1.0" xmlns="http://www.w3.org/2000/svg"
 width="820.000000pt" height="312.000000pt" viewBox="0 0 820.000000 312.000000"
 preserveAspectRatio="xMidYMid meet">

<g transform="translate(0.000000,312.000000) scale(0.100000,-0.100000)"
fill="#000000" stroke="none">
<path d="M0 3106 c0 -9 5 -16 10 -16 6 0 10 -13 10 -30 0 -23 5 -30 19 -30 11
0 27 -7 36 -17 24 -23 36 -1 33 57 l-3 45 -52 3 c-43 2 -53 0 -53 -12z"/>
<path d="M350 3068 c0 -29 4 -58 8 -64 6 -10 93 -13 127 -4 26 6 48 -3 81 -34
20 -19 50 -40 65 -47 34 -14 37 -31 8 -60 -23 -23 -46 -19 -91 14 -24 18 -32
19 -64 9 -38 -11 -82 -2 -96 21 -4 7 -18 12 -30 13 -75 2 -76 4 -84 99 -7 83
-9 85 -50 85 l-36 0 7 -93 c8 -106 0 -121 -70 -132 -33 -5 -46 -2 -74 19 -19
14 -39 26 -43 26 -5 0 -7 -165 -6 -367 3 -321 5 -368 18 -364 21 5 645 2 955
-4 143 -3 449 -8 680 -10 231 -2 440 -7 465 -11 56 -8 58 -5 94 101 47 135
118 274 216 420 76 113 122 168 240 288 l147 147 -800 0 -800 0 5 -100 c3 -55
7 -103 10 -106 3 -3 36 -7 73 -9 69 -5 99 -19 110 -55 3 -9 15 -22 28 -29 12
-7 30 -23 40 -37 35 -48 -24 -75 -70 -32 -20 19 -26 20 -47 9 -18 -10 -29 -10
-44 -2 -12 6 -38 10 -59 8 -25 -2 -42 2 -49 12 -17 23 -48 6 -39 -22 17 -56
17 -78 -1 -91 -14 -11 -23 -11 -48 -1 -23 10 -35 25 -47 61 -9 26 -30 59 -46
73 -16 14 -33 40 -38 56 -19 73 -12 100 32 123 19 10 26 8 58 -23 24 -22 35
-40 31 -50 -4 -10 8 -25 36 -45 46 -34 63 -32 30 3 -20 21 -22 34 -22 140 l0
117 -282 0 -283 0 -1 -30 c-2 -42 -29 -62 -78 -56 -43 5 -56 18 -56 59 0 26
-2 27 -55 27 l-55 0 0 -52z m378 -98 c13 -11 27 -32 31 -47 6 -22 13 -27 37
-28 87 -2 51 -41 -48 -51 l-65 -6 1 31 c0 17 4 31 9 31 4 0 7 5 7 10 0 6 -9
10 -20 10 -13 0 -20 7 -20 19 0 53 27 65 68 31z m1039 -16 c-3 -3 -12 -4 -19
-1 -8 3 -5 6 6 6 11 1 17 -2 13 -5z m-1463 -66 c-3 -4 -9 -8 -15 -8 -5 0 -9 4
-9 8 0 5 7 9 15 9 8 0 12 -4 9 -9z m1311 -10 c67 -22 157 -62 147 -66 -6 -2
-8 -10 -5 -18 3 -8 1 -14 -4 -14 -6 0 -15 -11 -21 -24 -10 -22 -8 -27 24 -45
48 -29 48 -67 0 -77 -24 -4 -42 -1 -58 10 -12 9 -37 16 -54 16 -47 0 -84 34
-84 76 0 19 5 34 10 34 6 0 10 5 10 11 0 7 -11 9 -29 6 -32 -7 -53 10 -58 45
-6 35 43 74 77 61 8 -3 29 -9 45 -15z"/>
<path d="M3044 3078 c-333 -235 -582 -569 -707 -948 l-35 -105 -80 -3 -80 -3
-11 -43 c-6 -24 -18 -104 -27 -177 -9 -74 -18 -144 -20 -156 l-4 -23 -1040 0
-1040 0 0 -749 c0 -643 2 -754 15 -784 20 -48 19 -74 -3 -80 -9 -3 92 -5 226
-6 209 -1 242 1 242 14 0 19 24 19 40 0 11 -13 134 -15 986 -15 737 1 974 3
974 12 0 9 3 9 12 0 9 -9 555 -12 2395 -12 l2384 0 0 103 c0 169 8 290 19 301
7 7 10 4 10 -9 0 -10 2 -16 5 -13 3 3 2 20 -2 38 -5 28 -8 30 -13 15 -4 -12
-9 4 -13 45 -4 35 -5 66 -2 68 3 3 6 -8 6 -24 l1 -29 8 30 c7 28 8 27 9 -12 0
-24 5 -43 10 -43 11 0 7 40 -9 100 -6 22 -15 38 -19 35 -5 -2 -9 22 -9 55 0
33 3 60 7 60 4 0 16 -7 27 -16 19 -15 19 -15 -1 -10 -16 5 -21 1 -21 -14 0
-12 5 -19 12 -16 7 3 17 -9 23 -26 14 -39 14 -57 0 -38 -9 12 -9 11 -4 -5 4
-11 10 -31 13 -45 6 -23 7 -22 13 10 l6 35 2 -37 c0 -20 5 -38 10 -40 4 -1 6
-29 3 -60 -2 -32 -8 -55 -13 -52 -5 3 -9 -1 -9 -8 0 -10 -3 -9 -11 2 -8 11 -8
9 -3 -10 9 -31 9 -42 -6 -104 -10 -38 -10 -54 -1 -68 6 -10 9 -23 6 -28 -3 -5
1 -23 10 -39 17 -33 20 -71 6 -71 -5 0 -19 12 -30 28 l-20 27 -1 -67 0 -68 38
0 c46 0 98 24 113 52 15 28 20 17 10 -20 l-10 -32 46 0 c39 0 44 2 33 15 -7 8
-9 22 -6 31 6 16 8 15 20 -2 13 -18 15 -17 24 16 l10 35 1 -31 c1 -31 22 -60
34 -47 4 3 7 1 7 -5 0 -8 19 -12 50 -12 49 0 50 0 50 31 0 17 -10 43 -22 59
-13 15 -30 37 -38 49 -13 19 -16 20 -26 6 -10 -13 -12 -11 -16 15 -3 18 2 39
11 53 16 22 16 22 21 -12 7 -48 24 -49 45 -1 10 22 20 39 22 37 2 -2 -2 -28
-8 -57 -9 -44 -9 -55 4 -68 14 -14 16 -13 22 9 3 13 7 44 9 69 5 69 18 131 32
159 7 13 11 28 8 33 -3 4 0 8 6 8 6 0 13 -8 16 -17 3 -10 9 -25 14 -33 4 -10
2 -23 -6 -35 -8 -10 -14 -38 -14 -61 0 -31 -7 -51 -25 -72 -31 -37 -34 -83 -5
-75 10 3 22 14 25 24 4 10 10 19 15 19 8 0 22 30 18 40 -4 9 36 49 43 44 5 -3
-1 -14 -11 -24 -11 -11 -21 -24 -21 -30 -1 -5 -2 -18 -3 -27 -1 -10 -7 -34
-13 -53 -6 -19 -14 -47 -17 -62 l-6 -28 79 0 79 0 13 44 c14 47 39 54 39 11 0
-45 10 -55 55 -55 29 0 45 5 49 15 3 8 14 15 25 15 11 0 27 10 35 22 16 22 16
22 16 -9 0 -18 4 -35 10 -38 6 -4 9 93 9 274 -1 241 -4 283 -17 293 -12 10
-14 10 -8 1 5 -9 2 -11 -8 -7 -8 3 -18 20 -21 37 -9 45 -47 137 -57 137 -11 0
-10 -67 1 -74 5 -4 3 -29 -6 -59 -9 -28 -17 -58 -20 -66 -2 -8 -6 -12 -8 -9
-3 3 3 33 14 67 15 49 16 61 6 57 -17 -6 -32 13 -18 23 5 3 9 22 10 41 0 19 5
36 11 38 5 1 8 12 5 22 -3 11 0 20 6 20 6 0 11 -7 11 -15 0 -8 6 -15 14 -15
18 0 38 25 28 35 -4 5 -1 5 6 1 7 -5 13 -1 14 11 0 10 4 -2 9 -27 7 -45 7 -45
6 13 -1 31 -1 57 1 57 1 0 7 -10 12 -23 6 -16 9 0 9 58 1 71 -2 84 -24 110
-29 35 -30 27 -9 -44 8 -29 13 -62 11 -74 -3 -20 -5 -19 -16 8 -6 17 -15 37
-18 45 -4 8 -7 22 -8 30 -1 22 -27 70 -37 70 -4 0 -8 -35 -8 -77 0 -48 -4 -73
-9 -64 -7 11 -9 11 -14 0 -3 -8 -6 33 -6 90 -1 99 -8 132 -13 63 -1 -18 -4
-32 -7 -32 -2 0 -17 15 -33 32 l-29 33 7 -41 c4 -27 2 -44 -5 -48 -7 -5 -11 2
-9 21 4 55 -2 186 -8 180 -9 -8 -10 -156 -2 -151 10 6 -2 -84 -14 -111 -5 -13
-7 -1 -4 35 3 34 2 47 -3 35 l-8 -20 -6 20 c-5 16 -6 15 -5 -5 1 -14 -2 -32
-5 -40 -4 -8 -11 -33 -16 -55 -8 -34 -10 -26 -9 55 0 66 -4 106 -15 130 -12
27 -15 29 -11 9 9 -45 -19 -41 -59 8 -20 25 -37 40 -37 34 0 -7 12 -23 26 -36
17 -16 24 -30 20 -41 -3 -9 3 -27 14 -41 24 -31 25 -43 5 -43 -8 0 -15 5 -15
10 0 6 -7 10 -15 10 -15 0 -31 42 -21 58 3 5 -1 15 -9 22 -32 27 -32 1 1 -69
19 -40 33 -76 30 -78 -3 -3 -12 12 -21 32 -8 21 -18 35 -22 32 -3 -4 0 -18 7
-32 7 -14 10 -28 7 -32 -4 -3 -7 -1 -7 6 0 25 -45 66 -72 67 -23 0 -27 -5 -32
-39 -6 -33 -9 -37 -22 -26 -8 7 -11 15 -6 18 6 3 15 25 22 49 12 47 -1 112
-23 112 -7 0 -6 4 2 9 12 8 13 12 1 26 -7 9 -9 15 -4 14 32 -6 54 35 35 68 -9
17 8 45 26 42 4 -1 13 0 18 1 6 1 25 3 42 4 30 1 33 -2 33 -27 0 -17 4 -26 11
-22 6 4 8 13 5 20 -6 18 18 38 41 33 12 -2 17 -11 16 -28 -2 -23 -1 -23 12 5
8 17 14 24 15 18 0 -14 30 -18 30 -5 0 10 76 10 86 -1 11 -11 36 -9 29 3 -8
13 1 13 26 0 14 -8 19 -7 19 2 1 8 5 7 14 -4 7 -10 18 -18 25 -18 6 0 11 -7
11 -16 0 -10 -6 -14 -15 -10 -18 7 -45 -3 -45 -16 0 -6 7 -8 14 -5 17 7 32
-26 27 -57 -2 -14 2 -17 14 -12 9 3 18 6 20 6 1 0 -1 16 -5 35 -4 20 -4 35 1
35 17 0 9 32 -11 50 -20 17 -19 18 20 18 l40 1 0 -45 c0 -45 -19 -55 -21 -11
0 12 -3 16 -6 9 -3 -7 -1 -20 3 -30 4 -9 9 -21 9 -27 1 -5 5 -17 8 -25 3 -8 8
-22 10 -30 3 -8 6 99 6 238 l1 252 -1039 0 c-572 0 -1042 3 -1044 8 -3 4 -10
57 -16 117 -7 61 -19 147 -28 193 l-16 82 -81 0 -81 0 -35 108 c-43 135 -149
349 -232 469 -126 183 -258 319 -442 455 l-91 68 -155 -1 c-146 0 -153 -1
-126 -15 20 -11 25 -19 17 -27 -7 -7 -28 -3 -73 16 l-63 27 -597 0 -597 0 -61
-27 c-43 -18 -64 -23 -72 -15 -7 7 -2 15 18 26 27 14 20 15 -127 16 l-156 0
-59 -42z m256 -40 c0 -13 -53 -48 -71 -48 -19 0 -8 26 19 42 32 21 52 23 52 6z
m1649 -5 c32 -19 37 -28 21 -38 -13 -8 -70 26 -70 42 0 18 13 16 49 -4z
m-1818 -112 c-201 -157 -313 -273 -424 -439 -67 -99 -164 -295 -197 -394 -12
-38 -26 -68 -32 -68 -14 0 -2 50 37 150 113 297 306 554 557 744 50 38 76 52
83 45 7 -8 -1 -19 -24 -38z m2108 -101 c140 -122 283 -312 376 -499 76 -153
138 -343 96 -295 -4 5 -20 45 -36 89 -72 210 -205 423 -369 592 -84 87 -204
192 -265 230 -2 1 -1 9 3 18 5 13 17 8 68 -31 35 -27 92 -73 127 -104z m-1359
-410 l40 -59 -22 -15 c-36 -23 -305 -184 -327 -196 -21 -11 -21 -9 -21 160 l0
170 145 0 144 0 41 -60z m121 3 c13 -16 12 -17 -3 -4 -17 13 -22 21 -14 21 2
0 10 -8 17 -17z m-403 -419 c-16 -8 -28 -17 -28 -19 0 -3 60 -5 134 -5 132 0
135 0 139 23 4 19 4 18 6 -5 l1 -28 -145 0 -145 0 0 25 c0 22 4 25 33 25 l32
-1 -27 -15z m626 -111 l87 -128 -28 -7 c-15 -4 -167 -24 -338 -43 -170 -19
-329 -38 -352 -41 l-43 -6 0 33 c0 19 3 58 6 87 l7 52 238 0 239 0 -55 85
c-30 47 -55 87 -55 90 0 3 47 5 103 5 l104 0 87 -127z m140 -25 c37 -54 63
-98 58 -98 -8 0 -51 62 -129 189 -34 54 6 3 71 -91z m176 -263 c50 -75 94
-142 97 -150 4 -13 -21 -15 -166 -15 l-171 0 -58 89 -57 90 -162 0 -163 1 0
-90 0 -90 -150 0 -150 0 0 100 c0 55 1 100 3 100 1 0 173 20 382 44 209 24
383 42 387 40 4 -3 46 -63 94 -134 l88 -130 53 0 53 0 -56 88 c-113 174 -125
192 -119 192 2 0 45 -61 95 -135z m-930 -311 c-14 -36 -13 -37 18 -14 38 28
96 25 100 -6 3 -22 -30 -44 -36 -25 -5 14 -32 14 -32 0 0 -6 11 -24 25 -41 30
-36 31 -57 4 -92 -35 -44 -123 -30 -98 16 8 15 14 16 30 7 15 -8 24 -8 32 0 8
8 2 20 -21 44 -18 18 -32 42 -33 52 0 11 -3 14 -6 8 -2 -7 -16 -13 -30 -13
-20 0 -24 4 -18 18 3 9 9 29 12 45 4 22 11 27 34 27 26 0 28 -2 19 -26z m-528
-72 c-4 -108 -10 -132 -33 -132 -14 0 -19 7 -19 25 0 15 -6 25 -14 25 -8 0
-17 -11 -20 -25 -5 -18 -13 -25 -30 -25 l-24 0 31 104 30 105 36 3 c20 2 38 2
41 0 2 -2 3 -38 2 -80z m228 16 c0 -114 -8 -148 -35 -148 -18 0 -21 4 -17 25
3 18 0 25 -11 25 -8 0 -18 -11 -21 -25 -5 -18 -13 -25 -30 -25 l-25 0 20 68
c32 111 31 120 -5 52 -19 -36 -35 -73 -36 -82 0 -16 -28 -38 -47 -38 -13 0 -3
194 11 202 23 16 36 7 37 -24 l1 -33 10 33 c11 33 34 42 56 20 9 -9 12 -9 12
-1 0 7 15 14 33 16 17 2 35 5 40 5 4 1 7 -31 7 -70z m220 15 c0 -32 -3 -82 -6
-110 -6 -47 -9 -53 -30 -53 -18 0 -23 5 -21 21 3 31 -21 35 -28 6 -6 -23 -11
-24 -71 -24 l-65 0 7 43 c3 24 11 69 18 101 10 53 13 58 39 61 24 3 28 0 24
-15 -6 -19 -21 -79 -31 -124 -5 -21 -2 -28 14 -32 12 -3 21 1 24 12 47 165 45
160 79 164 17 2 35 5 40 5 4 1 7 -24 7 -55z m510 38 c5 -11 10 -35 11 -53 1
-31 2 -30 10 11 10 50 7 46 36 55 20 7 23 3 29 -46 8 -55 11 -52 28 25 9 38
45 39 38 0 l-5 -27 27 21 c23 18 41 22 121 22 69 0 95 -3 95 -12 0 -9 2 -9 9
1 5 9 25 12 57 10 46 -3 49 -5 52 -32 3 -20 -4 -36 -22 -55 -22 -24 -23 -28
-11 -51 20 -35 18 -57 -4 -63 -16 -4 -21 4 -32 42 l-13 46 -8 -40 c-8 -38 -21
-55 -44 -55 -8 0 -7 20 2 68 17 87 17 102 0 102 -14 0 -19 -15 -32 -95 -10
-68 -14 -75 -40 -75 -19 0 -24 4 -20 18 11 38 27 144 22 149 -3 3 -19 0 -37
-7 -26 -11 -32 -11 -40 1 -6 10 -11 11 -19 3 -7 -7 -2 -20 20 -42 36 -39 38
-65 5 -97 -41 -42 -118 -28 -94 17 7 14 14 16 27 9 11 -6 24 -6 32 -1 12 7 9
15 -17 42 -17 18 -33 42 -35 53 -3 11 -10 -14 -17 -57 -12 -67 -16 -77 -37
-81 -22 -4 -24 0 -31 47 l-7 51 -11 -50 c-9 -39 -16 -51 -32 -53 -20 -3 -21 0
-12 35 14 60 11 84 -6 46 -34 -78 -114 -113 -135 -58 l-9 25 -25 -25 c-35 -35
-71 -33 -84 4 -6 16 -9 38 -7 48 2 10 6 30 9 45 3 14 18 40 32 57 31 37 77 42
94 11 11 -21 7 -25 -35 -32 -33 -5 -72 -108 -41 -108 9 0 16 5 16 11 0 6 9 9
20 6 15 -4 22 1 26 21 25 102 113 171 144 113z m1058 7 c16 -16 15 -91 -2
-132 -26 -62 -114 -103 -130 -60 -21 54 4 135 53 177 35 29 60 34 79 15z m86
-4 c3 -9 6 -26 6 -39 0 -41 17 -37 24 6 6 35 28 60 41 47 3 -3 -4 -47 -15 -99
-11 -52 -20 -97 -20 -100 0 -4 -11 -9 -25 -11 -22 -5 -25 -2 -25 26 0 55 -17
63 -24 12 -6 -38 -11 -46 -28 -46 -17 0 -20 5 -15 28 3 15 11 62 17 104 12 74
16 80 51 87 4 0 10 -6 13 -15z m-564 -1 c-1 -5 -7 -37 -15 -73 -17 -79 -19
-108 -5 -94 5 5 17 47 26 92 16 76 19 82 41 82 18 0 23 -4 19 -17 -2 -10 -7
-34 -11 -53 l-6 -35 21 43 c13 23 30 47 39 51 26 14 184 13 193 -2 6 -9 8 -9
8 1 0 6 9 12 20 12 24 0 24 -9 2 -120 -15 -74 -21 -85 -40 -88 -12 -2 -22 -2
-22 0 0 2 7 38 15 81 18 95 18 87 1 87 -16 0 -21 -13 -30 -75 -15 -91 -16 -95
-43 -95 -21 0 -24 4 -20 23 3 12 8 40 12 62 3 22 8 51 11 64 5 21 3 23 -23 16
-15 -4 -36 -7 -45 -7 -18 1 -48 -53 -48 -87 0 -24 10 -27 28 -9 9 9 15 9 24 0
9 -9 6 -17 -12 -37 -43 -46 -89 -25 -90 42 -1 26 -2 25 -15 -11 -16 -46 -22
-53 -56 -61 -35 -9 -62 18 -55 54 2 14 10 56 16 94 11 61 14 67 36 67 13 0 24
-3 24 -7z m2683 -16 c-3 -7 4 -3 16 7 22 20 22 20 28 -2 3 -12 10 -19 15 -16
5 3 7 13 3 21 -5 14 3 15 57 8 100 -11 147 -12 142 -3 -3 4 6 8 20 8 14 0 26
-5 26 -10 0 -6 8 -10 17 -8 12 2 18 -4 19 -17 1 -11 5 -28 9 -37 4 -10 3 -18
-3 -18 -6 0 -12 5 -14 12 -3 8 -11 6 -25 -7 -25 -24 -38 -61 -23 -70 5 -3 10
-12 10 -18 0 -7 -4 -6 -10 3 -6 9 -10 11 -10 3 0 -7 -7 -10 -17 -6 -14 5 -13
3 3 -14 10 -11 22 -18 25 -17 4 2 6 -4 6 -14 0 -48 3 -53 23 -47 11 4 20 2 20
-4 0 -6 -4 -11 -10 -11 -5 0 -10 -8 -10 -17 -1 -16 -2 -16 -15 1 -15 19 -15
19 -16 -5 0 -13 -1 -79 -2 -146 -1 -88 -6 -124 -15 -128 -9 -3 -11 3 -7 23 7
39 -5 113 -18 105 -7 -4 -8 0 -4 11 4 10 8 34 9 54 1 37 1 36 8 -8 l7 -45 1
42 c1 23 -2 45 -8 48 -5 3 -11 32 -12 63 l-2 57 -3 -48 c-2 -26 -8 -45 -14
-42 -5 4 -10 -1 -10 -9 -1 -9 -3 -20 -4 -26 -1 -5 -3 -14 -4 -20 0 -5 -8 -10
-16 -10 -8 0 -15 -6 -16 -12 0 -7 -5 -2 -10 11 -5 13 -8 29 -5 35 2 6 5 3 5
-6 1 -24 17 -23 24 1 3 12 -3 27 -13 36 -17 15 -19 15 -23 -2 -3 -10 -5 -1 -6
21 -1 33 1 37 14 26 8 -6 17 -20 20 -31 5 -15 9 -17 19 -7 22 23 26 46 8 44
-10 0 -16 6 -16 16 1 9 -11 32 -26 50 l-29 33 2 -36 c1 -21 6 -35 11 -32 5 3
7 0 4 -8 -5 -16 -38 -19 -39 -4 0 6 -7 14 -15 18 -9 5 -19 18 -24 30 -15 39
-11 -12 6 -58 8 -25 12 -29 8 -12 -3 19 -1 26 6 22 5 -3 10 -11 10 -17 0 -6 8
-20 18 -31 9 -11 11 -17 5 -13 -18 10 -16 -4 7 -46 16 -30 19 -52 16 -107 -2
-38 0 -74 4 -81 4 -7 7 0 7 17 1 15 6 50 13 76 l12 48 24 -26 c21 -22 24 -35
23 -93 0 -37 -3 -61 -6 -54 -2 6 -11 12 -18 12 -8 0 -16 10 -18 23 -4 18 -5
17 -6 -6 0 -16 -9 -42 -18 -57 -14 -24 -14 -33 -5 -52 12 -22 12 -21 8 9 -3
18 -1 35 4 38 9 5 13 -9 12 -40 0 -5 -3 -28 -7 -50 l-7 -40 -19 35 -20 35 5
-32 c3 -18 1 -33 -4 -33 -4 0 -11 -8 -14 -17 -5 -19 -1 52 10 170 4 40 3 67
-3 67 -5 0 -11 -28 -12 -62 -1 -35 -3 -64 -5 -65 -2 -2 -8 8 -14 23 -7 14 -8
23 -2 19 6 -4 10 8 10 29 0 44 -13 53 -40 26 -21 -21 -26 -49 -12 -66 5 -5 14
-28 22 -51 7 -23 17 -40 21 -37 5 3 9 -14 8 -38 l-1 -43 -12 33 c-6 18 -14 31
-16 28 -3 -2 -6 5 -7 17 -4 45 -16 87 -26 94 -6 4 -7 -7 -3 -32 5 -27 4 -35
-5 -30 -7 5 -10 23 -7 49 3 27 0 46 -8 54 -15 14 -19 36 -5 28 5 -3 9 6 9 19
0 14 -4 28 -9 31 -5 3 -9 10 -9 16 0 6 8 4 18 -5 11 -10 23 -13 31 -8 10 7 10
14 -3 40 -9 17 -19 31 -21 31 -6 0 6 -32 17 -47 5 -7 5 -14 -1 -17 -11 -7 -51
54 -51 77 0 9 -7 23 -16 32 -18 17 -25 69 -14 100 6 17 8 16 14 -11 4 -17 18
-41 31 -52 13 -12 33 -39 44 -61 12 -22 25 -42 31 -46 5 -3 10 -18 10 -33 0
-32 15 -19 24 22 7 27 6 28 -10 15 -16 -12 -17 -12 -11 4 10 27 -2 50 -19 36
-12 -10 -13 -8 -8 6 5 11 4 16 -3 12 -6 -4 -10 5 -10 21 -1 58 -11 120 -22
138 -11 16 -11 15 -6 -11 l6 -30 -20 20 c-12 12 -29 55 -41 105 -14 55 -28 91
-42 103 -11 9 -15 17 -9 17 14 0 51 -36 51 -50 0 -5 7 -10 16 -10 12 0 14 -4
7 -12 -7 -9 -5 -29 8 -63 9 -27 18 -44 18 -37 1 7 6 10 12 6 7 -4 2 7 -11 24
-16 21 -21 38 -16 55 4 17 -1 33 -15 51 -11 14 -17 30 -14 36 9 14 27 1 18
-13z m-6214 -27 c0 -10 -3 -8 -9 5 -12 27 -12 43 0 25 5 -8 9 -22 9 -30z m941
12 c0 -15 -2 -15 -10 -2 -13 20 -13 33 0 25 6 -3 10 -14 10 -23z m4343 1 c5
-26 4 -26 -9 -8 -16 22 -18 35 -5 35 5 0 11 -12 14 -27z m-6059 -1 c3 -5 -1
-9 -9 -9 -8 0 -12 4 -9 9 3 4 7 8 9 8 2 0 6 -4 9 -8z m6436 -7 c0 -8 -2 -15
-4 -15 -2 0 -6 7 -10 15 -3 8 -1 15 4 15 6 0 10 -7 10 -15z m370 -5 c0 -18 -2
-19 -20 -8 -11 7 -20 16 -20 20 0 5 9 8 20 8 13 0 20 -7 20 -20z m-6153 -37
c-3 -10 -5 -2 -5 17 0 19 2 27 5 18 2 -10 2 -26 0 -35z m673 37 c0 -5 -2 -10
-4 -10 -3 0 -8 5 -11 10 -3 6 -1 10 4 10 6 0 11 -4 11 -10z m4640 2 c0 -4 -9
-8 -20 -9 -11 -1 -20 2 -20 5 0 4 9 8 20 9 11 1 20 -2 20 -5z m-5741 -52 c0
-10 -3 -8 -9 5 -12 27 -12 43 0 25 5 -8 9 -22 9 -30z m641 -29 c-1 -17 -30 36
-30 53 1 16 5 12 15 -13 8 -18 15 -36 15 -40z m6026 13 c14 -31 24 -60 22 -65
-2 -5 -15 21 -30 56 -33 80 -26 87 8 9z m-510 -2 c-9 -8 -26 10 -26 26 1 15 2
15 15 -2 8 -11 13 -21 11 -24z m-556 3 c0 -8 -2 -15 -4 -15 -2 0 -6 7 -10 15
-3 8 -1 15 4 15 6 0 10 -7 10 -15z m-5272 -20 c-3 -3 -9 2 -12 12 -6 14 -5 15
5 6 7 -7 10 -15 7 -18z m1059 3 c-3 -8 -6 -5 -6 6 -1 11 2 17 5 13 3 -3 4 -12
1 -19z m4907 6 c3 -8 2 -12 -4 -9 -6 3 -10 10 -10 16 0 14 7 11 14 -7z m13
-46 c-3 -8 -6 -5 -6 6 -1 11 2 17 5 13 3 -3 4 -12 1 -19z m-60 -9 c1 -12 1
-20 0 -18 -2 2 -9 12 -16 22 -11 14 -11 17 1 17 7 0 14 -10 15 -21z m503 -34
c0 -14 -4 -25 -10 -25 -5 0 -10 11 -10 25 0 14 5 25 10 25 6 0 10 -11 10 -25z
m350 -6 c0 -10 -4 -19 -10 -19 -5 0 -10 12 -10 26 0 14 4 23 10 19 6 -3 10
-15 10 -26z m-7494 -122 c25 -65 43 -121 40 -124 -6 -6 -45 74 -46 93 0 6 -13
44 -30 84 -30 72 -39 109 -20 80 5 -8 31 -68 56 -133z m6511 101 c-3 -8 -6 -5
-6 6 -1 11 2 17 5 13 3 -3 4 -12 1 -19z m1203 -18 c5 0 11 6 13 13 3 6 5 -8 5
-33 0 -25 -3 -35 -5 -23 -2 12 -15 29 -29 37 -13 9 -24 21 -24 27 0 6 7 3 16
-5 8 -9 19 -16 24 -16z m-6140 0 c0 -5 -4 -10 -10 -10 -5 0 -10 5 -10 10 0 6
5 10 10 10 6 0 10 -4 10 -10z m5435 -26 c9 -15 12 -23 6 -20 -11 7 -35 46 -28
46 3 0 12 -12 22 -26z m-436 -18 c-3 -3 -11 5 -18 17 -13 21 -12 21 5 5 10
-10 16 -20 13 -22z m-4983 -1 c9 -37 0 -40 -13 -5 -6 17 -7 30 -2 30 5 0 11
-11 15 -25z m5119 16 c3 -5 1 -12 -5 -16 -5 -3 -10 1 -10 9 0 18 6 21 15 7z
m860 -11 c3 -5 1 -10 -4 -10 -6 0 -11 5 -11 10 0 6 2 10 4 10 3 0 8 -4 11 -10z
m-3715 -2 c-1 -2 -11 -46 -24 -98 -25 -99 -25 -110 0 -110 8 0 14 -6 14 -14 0
-9 -15 -15 -45 -18 -25 -2 -45 0 -45 3 0 8 28 175 36 212 5 22 11 27 35 27 16
0 29 -1 29 -2z m100 -2 c0 -3 -9 -42 -20 -88 -24 -99 -25 -118 -6 -118 8 0 16
-6 19 -14 4 -11 -6 -15 -42 -18 -38 -2 -47 0 -45 12 2 8 10 60 19 114 9 55 18
103 21 108 5 8 54 12 54 4z m160 -16 c14 -27 5 -40 -29 -40 -35 0 -49 -16 -66
-73 -17 -56 -6 -80 25 -52 16 15 23 16 33 6 9 -10 5 -18 -21 -42 -37 -33 -54
-36 -76 -13 -20 20 -21 102 -2 149 31 74 111 112 136 65z m3864 -32 c5 -32 4
-48 -3 -48 -7 0 -11 22 -11 52 0 62 5 60 14 -4z m-104 -47 c-11 -44 -12 -185
0 -216 5 -13 1 -33 -11 -57 -27 -53 -24 -58 11 -18 l29 35 -17 -43 c-9 -24
-30 -57 -45 -75 -19 -21 -23 -23 -13 -7 20 31 20 52 1 26 -21 -27 -19 -19 11
53 14 35 23 66 20 69 -3 2 -11 -8 -17 -24 -23 -59 -30 -71 -23 -39 3 17 7 35
8 40 1 6 5 16 9 23 5 6 5 16 2 22 -3 5 -2 26 4 45 9 35 -3 61 -13 28 -3 -10
-4 -6 -2 10 2 15 0 27 -4 27 -4 0 -5 12 -2 28 l6 27 7 -25 c5 -17 7 -1 8 45 1
47 4 65 11 55 5 -8 12 -11 16 -7 4 4 2 13 -4 19 -7 7 -12 21 -12 33 1 17 3 16
16 -8 12 -21 13 -35 4 -66z m-6320 59 c6 -11 8 -20 6 -20 -3 0 -10 9 -16 20
-6 11 -8 20 -6 20 3 0 10 -9 16 -20z m5530 -1 c0 -18 -2 -20 -15 -9 -13 11
-13 15 -3 21 18 12 18 12 18 -12z m130 -14 c0 -5 -5 -3 -10 5 -5 8 -10 20 -10
25 0 6 5 3 10 -5 5 -8 10 -19 10 -25z m260 19 c0 -8 -4 -12 -10 -9 -5 3 -10
10 -10 16 0 5 5 9 10 9 6 0 10 -7 10 -16z m125 -49 c9 -33 17 -92 18 -132 1
-39 5 -71 10 -70 5 1 12 -5 14 -13 4 -13 3 -13 -6 0 -9 13 -11 12 -11 -4 0
-34 -14 -6 -21 42 -6 42 -7 38 -8 -33 -2 -62 -4 -75 -12 -56 -11 27 -16 192
-7 207 4 6 3 27 -2 47 -7 32 -3 84 5 75 2 -2 11 -30 20 -63z m-1425 51 c0 -3
-4 -8 -10 -11 -5 -3 -10 -1 -10 4 0 6 5 11 10 11 6 0 10 -2 10 -4z m677 -18
c-3 -8 -6 -5 -6 6 -1 11 2 17 5 13 3 -3 4 -12 1 -19z m842 -10 c-3 -35 17 -82
30 -74 13 9 42 -30 36 -47 -4 -8 -1 -18 4 -22 6 -3 9 -11 6 -16 -4 -5 -1 -9 5
-9 7 0 10 7 7 15 -4 8 -2 17 4 20 19 13 21 -25 1 -43 -11 -9 -25 -32 -31 -51
-13 -39 -6 -56 8 -20 8 22 9 21 21 -21 7 -25 16 -57 21 -73 4 -15 4 -38 0 -50
-9 -22 -9 -22 -16 4 -3 14 -8 34 -10 45 -2 10 -4 21 -5 24 0 3 -5 -3 -11 -13
-5 -9 -7 -23 -3 -30 5 -9 4 -9 -7 1 -7 7 -13 29 -12 50 l2 37 -10 -44 c-8 -32
-8 -46 1 -51 6 -4 9 -17 5 -32 -4 -15 -2 -29 4 -32 6 -4 11 -17 10 -29 l0 -22
-9 23 c-19 47 -28 19 -28 -85 0 -81 3 -112 16 -132 l16 -26 -22 19 c-12 11
-22 27 -22 36 0 10 -16 48 -35 86 -36 70 -51 149 -20 108 14 -19 14 -19 16 1
1 11 5 2 9 -20 7 -32 8 -26 7 35 -1 41 2 81 6 88 5 6 6 16 3 21 -3 5 1 25 9
45 8 20 16 47 17 61 1 14 6 25 10 25 4 0 8 7 8 16 0 14 -3 14 -15 4 -13 -11
-15 -8 -16 16 -1 33 -5 25 -14 -31 -7 -39 -8 -39 -17 -15 -6 14 -10 40 -9 58
1 17 -3 32 -9 32 -5 0 -10 5 -10 10 0 6 6 10 14 10 9 0 15 14 18 40 2 22 0 40
-5 40 -4 0 -5 6 0 13 4 6 8 15 9 20 3 15 4 17 10 17 3 0 4 -15 3 -32z m-6785
-4 c3 -8 2 -12 -4 -9 -6 3 -10 10 -10 16 0 14 7 11 14 -7z m6636 -29 c0 -5 -5
-3 -10 5 -5 8 -10 20 -10 25 0 6 5 3 10 -5 5 -8 10 -19 10 -25z m-153 -22 c-3
-10 -5 -4 -5 12 0 17 2 24 5 18 2 -7 2 -21 0 -30z m123 5 c0 -5 -4 -6 -10 -3
-5 3 -10 2 -10 -4 0 -5 6 -11 13 -14 6 -2 9 -8 5 -12 -12 -13 -21 2 -23 35 -1
24 1 28 12 19 7 -6 13 -16 13 -21z m-370 -15 c7 -16 13 -32 12 -36 -1 -4 2
-16 8 -27 6 -12 6 -21 1 -25 -6 -3 -13 11 -17 32 -3 21 -13 48 -20 61 -8 12
-11 22 -6 22 5 0 15 -12 22 -27z m796 -11 c8 -22 7 -31 -6 -45 -20 -21 -27
-22 -27 -2 0 8 5 15 10 15 5 0 7 14 5 30 -6 38 4 39 18 2z m-388 -23 c3 -11 2
-12 -6 -1 -7 11 -12 6 -21 -19 -9 -26 -8 -35 3 -48 18 -20 24 -53 11 -57 -5
-2 -11 7 -11 20 -1 14 -12 40 -25 58 -13 19 -16 27 -7 20 14 -11 17 -9 23 18
7 31 25 36 33 9z m-6050 -14 c-3 -3 -9 2 -12 12 -6 14 -5 15 5 6 7 -7 10 -15
7 -18z m6389 3 c-3 -8 -6 -5 -6 6 -1 11 2 17 5 13 3 -3 4 -12 1 -19z m-747
-40 c0 -5 -4 -8 -10 -8 -5 0 -10 10 -10 23 0 18 2 19 10 7 5 -8 10 -18 10 -22z
m369 -63 c1 -5 -4 -17 -9 -25 -8 -11 -9 -7 -4 15 3 17 2 25 -3 19 -5 -7 -17 6
-31 35 l-24 46 36 -40 c19 -22 35 -44 35 -50z m-7006 20 l6 -30 -14 30 c-16
34 -21 72 -6 45 5 -8 11 -28 14 -45z m1137 -130 c-1 -5 -7 -1 -15 9 -8 10 -12
22 -10 26 3 4 -4 34 -15 65 -11 32 -20 65 -20 74 1 9 14 -24 30 -74 16 -49 30
-94 30 -100z m2507 169 c8 -21 -19 -46 -40 -38 -9 3 -17 17 -17 30 0 19 5 24
25 24 14 0 28 -7 32 -16z m3504 -61 c13 -16 12 -17 -3 -4 -17 13 -22 21 -14
21 2 0 10 -8 17 -17z m-279 -38 c2 -19 1 -35 -3 -35 -8 0 -19 36 -19 63 0 32
18 9 22 -28z m-5482 -6 c12 -23 20 -43 18 -45 -3 -2 -14 17 -26 41 -27 56 -20
60 8 4z m5561 17 c5 3 6 11 2 17 -4 7 0 6 10 -2 18 -15 15 -47 -10 -91 -8 -14
-12 -17 -9 -7 16 52 18 67 6 67 -6 0 -9 -3 -7 -7 2 -5 -4 -26 -14 -48 -18 -38
-18 -39 -16 -10 1 17 8 35 14 40 9 7 10 15 3 25 -8 13 -10 12 -10 -4 0 -11 -3
-16 -7 -13 -3 4 0 19 8 34 11 20 15 22 17 9 2 -9 8 -14 13 -10z m-6912 -21 c5
3 13 0 17 -6 4 -7 3 -9 -3 -6 -6 4 -13 0 -17 -8 -3 -8 -14 -15 -25 -15 -17 0
-18 3 -8 36 10 32 12 34 19 14 4 -12 12 -19 17 -15z m7152 12 c-10 -9 -11 -8
-5 6 3 10 9 15 12 12 3 -3 0 -11 -7 -18z m-6631 -7 c6 -11 8 -20 6 -20 -3 0
-10 9 -16 20 -6 11 -8 20 -6 20 3 0 10 -9 16 -20z m400 -15 c0 -5 -5 -3 -10 5
-5 8 -10 20 -10 25 0 6 5 3 10 -5 5 -8 10 -19 10 -25z m6197 13 c-3 -8 -6 -5
-6 6 -1 11 2 17 5 13 3 -3 4 -12 1 -19z m-5637 -48 c11 -22 18 -40 15 -40 -2
0 -14 18 -25 40 -11 22 -18 40 -15 40 2 0 14 -18 25 -40z m5954 24 c3 -8 2
-12 -4 -9 -6 3 -10 10 -10 16 0 14 7 11 14 -7z m-6663 -11 c13 -16 12 -17 -3
-4 -17 13 -22 21 -14 21 2 0 10 -8 17 -17z m6343 1 c3 -8 2 -12 -4 -9 -6 3
-10 10 -10 16 0 14 7 11 14 -7z m-6409 -30 c9 -15 12 -23 6 -20 -11 7 -35 46
-28 46 3 0 12 -12 22 -26z m6241 -10 c-1 -19 1 -37 6 -40 4 -3 8 0 8 6 0 7 6
5 15 -4 14 -14 14 -18 -2 -42 -13 -21 -18 -53 -20 -143 -2 -90 -7 -119 -19
-131 -15 -14 -16 -13 -10 13 4 18 2 33 -8 42 -9 10 -13 29 -10 55 2 25 0 39
-6 35 -14 -8 -13 8 1 22 6 6 14 42 16 80 3 37 10 74 16 81 6 8 6 12 -2 12 -7
0 -7 7 1 25 15 33 18 32 14 -11z m-6172 0 c3 -8 2 -12 -4 -9 -6 3 -10 10 -10
16 0 14 7 11 14 -7z m31 -4 c10 -11 14 -20 9 -20 -5 0 -15 9 -22 20 -7 11 -11
20 -9 20 2 0 12 -9 22 -20z m192 -2 c-3 -8 -6 -5 -6 6 -1 11 2 17 5 13 3 -3 4
-12 1 -19z m318 -19 c9 -17 15 -33 13 -35 -3 -2 -12 12 -21 31 -21 43 -13 47
8 4z m5756 21 c7 -38 7 -100 0 -100 -5 0 -12 -10 -16 -22 -8 -22 -8 -22 -12 5
-5 31 -23 37 -23 8 0 -27 -19 -36 -27 -14 -4 10 -11 22 -17 26 -7 6 -5 7 5 4
22 -7 46 50 30 74 -6 10 -11 21 -11 24 0 7 70 3 71 -5z m379 -6 c0 -8 -4 -12
-10 -9 -5 3 -10 10 -10 16 0 5 5 9 10 9 6 0 10 -7 10 -16z m-6050 -29 c0 -5
-5 -3 -10 5 -5 8 -10 20 -10 25 0 6 5 3 10 -5 5 -8 10 -19 10 -25z m5462 -54
c-9 -25 -10 -24 -21 18 -7 23 -9 50 -6 60 11 28 37 -47 27 -78z m255 32 c-3
-10 -5 -4 -5 12 0 17 2 24 5 18 2 -7 2 -21 0 -30z m-7473 5 c26 -37 19 -57 -9
-25 -14 15 -25 32 -25 38 0 16 18 10 34 -13z m7806 2 c0 -11 6 -19 12 -17 7 1
14 -9 16 -23 2 -20 1 -22 -7 -10 -8 12 -11 7 -11 -19 0 -31 1 -33 13 -17 12
16 13 15 11 -11 -2 -45 -5 -49 -14 -28 -7 17 -9 16 -9 -10 -1 -23 -4 -26 -11
-15 -14 22 -24 -12 -17 -61 4 -29 1 -42 -9 -46 -8 -3 -14 -12 -14 -21 0 -8 -2
-13 -5 -10 -5 5 -13 59 -14 96 -1 13 -5 21 -9 18 -10 -6 -8 36 3 54 5 7 4 11
-1 7 -5 -3 -18 1 -29 9 -10 8 -15 14 -11 14 5 0 3 7 -4 15 -15 18 1 20 19 3
10 -11 12 -9 9 7 -2 11 -10 19 -17 17 -7 -1 -11 3 -9 10 3 7 16 14 31 16 25 3
26 1 24 -40 -2 -35 1 -43 18 -46 17 -2 17 -1 5 7 -10 8 -12 13 -4 19 6 4 11
16 11 27 -1 47 4 75 13 75 6 0 10 -9 10 -20z m-675 -21 c-5 -14 -10 -18 -14
-10 -6 9 -12 7 -22 -5 -11 -13 -11 -18 -1 -21 17 -6 15 -43 -3 -43 -8 0 -15
-5 -15 -12 0 -6 -3 -9 -6 -6 -3 4 -1 16 6 27 6 12 7 21 2 21 -5 0 -14 -10 -20
-22 -8 -18 -11 -19 -11 -6 -1 9 4 20 10 23 6 4 8 13 5 21 -3 8 1 14 8 14 7 0
19 7 26 15 7 8 16 12 21 9 5 -3 9 3 9 12 0 10 3 15 6 11 3 -3 3 -15 -1 -28z
m42 -1 c-3 -8 -6 -5 -6 6 -1 11 2 17 5 13 3 -3 4 -12 1 -19z m-5931 -38 c15
-22 25 -42 23 -45 -3 -2 -13 11 -24 30 -10 19 -22 35 -27 35 -4 0 -8 5 -8 10
0 18 9 10 36 -30z m6015 -3 c-8 -8 -11 -7 -11 4 0 20 13 34 18 19 3 -7 -1 -17
-7 -23z m367 -54 c6 -43 14 -89 17 -103 l6 -25 -15 25 c-8 14 -15 32 -16 41 0
9 -6 29 -14 45 -18 38 -31 95 -16 74 8 -13 10 -13 10 3 0 9 4 17 9 17 4 0 13
-35 19 -77z m-7461 35 c-3 -7 -5 -2 -5 12 0 14 2 19 5 13 2 -7 2 -19 0 -25z
m1342 -23 c0 -5 -4 -3 -9 5 -5 8 -9 22 -9 30 0 16 17 -16 18 -35z m5641 18 c0
-16 3 -38 6 -50 4 -15 2 -23 -6 -23 -7 0 -10 7 -6 16 4 10 1 14 -6 12 -7 -3
-14 -14 -16 -26 -2 -16 1 -20 11 -16 8 3 17 -2 20 -10 4 -9 2 -16 -3 -16 -6 0
-10 5 -10 11 0 5 -4 8 -9 4 -5 -3 -13 0 -17 7 -5 8 -10 6 -16 -8 -7 -15 -7
-14 -3 6 2 14 5 36 6 50 0 21 2 22 8 7 6 -17 8 -18 20 -3 11 13 11 22 3 41
-10 21 -9 25 3 25 10 0 15 -10 15 -27z m36 8 c12 10 17 8 28 -6 8 -12 18 -15
27 -10 8 5 7 0 -3 -10 -13 -14 -20 -16 -31 -6 -8 6 -22 9 -31 5 -13 -5 -16 0
-15 22 1 18 3 22 6 11 4 -15 8 -16 19 -6z m-1135 -24 c-10 -9 -11 -8 -5 6 3
10 9 15 12 12 3 -3 0 -11 -7 -18z m-4105 -14 c-7 -7 -26 7 -26 19 0 6 6 6 15
-2 9 -7 13 -15 11 -17z m5430 -9 c7 -26 0 -111 -9 -120 -3 -4 -10 -3 -16 1
-14 8 -14 88 0 102 8 8 8 13 0 17 -16 10 -13 26 4 26 8 0 18 -12 21 -26z m328
-18 c-3 -14 -10 -24 -14 -21 -5 3 -3 16 3 29 15 31 20 27 11 -8z m-7554 -8
c35 -20 51 -38 35 -38 -8 0 -85 50 -85 55 0 9 11 5 50 -17z m7047 0 c-3 -8 -6
-5 -6 6 -1 11 2 17 5 13 3 -3 4 -12 1 -19z m460 0 c-3 -8 -6 -5 -6 6 -1 11 2
17 5 13 3 -3 4 -12 1 -19z m-7152 -58 c33 -33 56 -60 52 -60 -11 0 -127 103
-127 112 0 18 19 5 75 -52z m102 38 c-3 -8 -6 -5 -6 6 -1 11 2 17 5 13 3 -3 4
-12 1 -19z m870 -54 c-5 -5 -47 62 -47 74 0 4 12 -11 26 -31 14 -21 24 -41 21
-43z m-407 46 c6 -11 8 -20 6 -20 -3 0 -10 9 -16 20 -6 11 -8 20 -6 20 3 0 10
-9 16 -20z m-389 -22 c8 -15 8 -18 0 -14 -6 4 -16 16 -22 28 -8 15 -8 18 0 14
6 -4 16 -16 22 -28z m1375 -13 c10 -27 23 -45 33 -45 12 0 13 -2 3 -8 -9 -7
-5 -24 18 -76 17 -38 29 -70 26 -73 -5 -6 -56 72 -56 86 0 5 -13 42 -30 82
-34 85 -33 79 -21 79 5 0 17 -20 27 -45z m5503 5 c0 -10 -3 -8 -9 5 -12 27
-12 43 0 25 5 -8 9 -22 9 -30z m18 -7 c-3 -10 -5 -2 -5 17 0 19 2 27 5 18 2
-10 2 -26 0 -35z m30 25 c-3 -8 -6 -5 -6 6 -1 11 2 17 5 13 3 -3 4 -12 1 -19z
m-6069 -13 c-3 -3 -9 2 -12 12 -6 14 -5 15 5 6 7 -7 10 -15 7 -18z m5705 -97
c16 13 10 -108 -5 -123 -7 -7 -9 -3 -5 12 3 13 1 26 -4 29 -5 3 -8 49 -7 102
1 75 3 83 5 34 3 -48 7 -61 16 -54z m487 26 c-9 -57 -9 -79 -1 -82 6 -2 11
-13 11 -24 0 -11 -3 -18 -7 -16 -70 33 -84 44 -80 60 3 9 -1 22 -9 29 -8 6
-11 15 -8 20 7 12 24 11 24 -1 0 -15 38 -55 46 -48 3 3 8 32 10 64 6 66 12 89
20 81 3 -3 0 -40 -6 -83z m-656 60 c3 -8 2 -12 -4 -9 -6 3 -10 10 -10 16 0 14
7 11 14 -7z m-5064 -9 c14 -8 21 -14 15 -14 -5 0 -21 6 -35 14 -14 8 -20 14
-15 14 6 0 21 -6 35 -14z m5840 -28 c0 -5 -7 -2 -15 7 -8 8 -15 20 -15 27 0
14 29 -20 30 -34z m-510 -1 c0 -3 -4 -8 -10 -11 -5 -3 -10 -1 -10 4 0 6 5 11
10 11 6 0 10 -2 10 -4z m258 -24 c7 -5 15 -25 19 -45 5 -33 3 -37 -16 -37 -13
0 -19 -4 -16 -10 4 -6 1 -9 -7 -8 -8 2 -12 -4 -10 -14 2 -10 -2 -18 -9 -18 -7
0 -9 -9 -5 -25 4 -14 2 -25 -4 -25 -5 0 -10 6 -10 13 -1 6 -8 0 -16 -15 -25
-48 -24 -30 3 28 18 41 22 59 14 67 -6 6 -11 16 -11 22 0 5 4 4 9 -4 5 -8 16
-11 25 -8 19 7 22 57 4 75 -9 9 -9 12 3 12 7 0 20 -4 27 -8z m-430 -19 c-30
-65 -64 -123 -71 -123 -5 0 -7 4 -5 8 2 4 14 33 27 65 14 31 31 57 39 57 7 0
12 -3 10 -7z m-6524 -54 c8 -40 8 -64 0 -56 -10 10 -22 87 -14 87 4 0 10 -14
14 -31z m4656 -10 c0 -18 -35 -5 -38 14 -3 16 -1 17 17 7 12 -6 21 -15 21 -21z
m2515 1 c7 0 15 6 18 13 7 21 18 1 21 -40 3 -38 2 -39 -19 -29 -13 6 -20 16
-18 23 3 7 -2 16 -11 19 -9 3 -15 16 -15 28 1 16 2 17 6 4 2 -10 11 -18 18
-18z m-605 11 c0 -5 -6 -13 -13 -19 -15 -13 -42 1 -33 17 8 13 46 15 46 2z
m-6529 -27 c22 -25 22 -26 3 -16 -12 6 -24 18 -28 27 -8 21 -3 19 25 -11z
m6392 -26 c-3 -16 -9 -28 -14 -28 -11 0 -11 3 1 36 13 33 20 29 13 -8z m-5063
-49 c17 -28 26 -49 20 -47 -6 2 -25 28 -42 57 -39 68 -21 59 22 -10z m-1873
-1 c12 -44 1 -50 -28 -15 -24 28 -24 53 0 53 12 0 21 -12 28 -38z m7178 -56
c-6 -15 -8 -15 -20 2 -12 16 -12 23 3 50 l17 31 3 -33 c2 -19 1 -41 -3 -50z
m305 52 c0 -8 -5 -12 -10 -9 -6 4 -8 11 -5 16 9 14 15 11 15 -7z m-5725 -14
c14 -16 15 -20 4 -20 -16 0 -39 19 -39 32 0 14 16 9 35 -12z m495 0 c0 -5 -2
-10 -4 -10 -3 0 -8 5 -11 10 -3 6 -1 10 4 10 6 0 11 -4 11 -10z"/>
<path d="M3740 1540 l0 -90 55 0 55 0 0 90 0 90 -55 0 -55 0 0 -90z"/>
<path d="M3023 1206 c-5 -25 -7 -46 -2 -46 9 0 23 63 17 81 -2 7 -9 -9 -15
-35z"/>
<path d="M3256 1223 c-4 -15 -9 -36 -12 -45 -3 -10 -1 -18 4 -18 5 0 12 19 16
41 8 48 2 64 -8 22z"/>
<path d="M3468 1195 c-6 -30 -3 -43 8 -33 3 4 4 19 2 35 l-3 28 -7 -30z"/>
<path d="M4477 1230 c-6 -23 -3 -24 24 -10 24 14 25 30 0 30 -10 0 -21 -9 -24
-20z"/>
<path d="M3962 1217 c-15 -18 -25 -64 -18 -82 13 -36 66 29 66 81 0 18 -34 18
-48 1z"/>
<path d="M5014 1195 c-27 -65 -11 -93 31 -51 32 32 35 86 4 86 -13 0 -25 -11
-35 -35z"/>
<path d="M7590 1239 c0 -11 5 -17 10 -14 6 3 10 13 10 21 0 8 -4 14 -10 14 -5
0 -10 -9 -10 -21z"/>
<path d="M7468 1201 c-2 -17 -1 -36 4 -43 5 -9 8 -8 8 5 0 10 5 15 10 12 13
-8 7 32 -7 46 -7 7 -12 2 -15 -20z"/>
<path d="M7320 1180 c0 -5 5 -10 11 -10 5 0 7 5 4 10 -3 6 -8 10 -11 10 -2 0
-4 -4 -4 -10z"/>
<path d="M7420 1164 c0 -8 5 -12 10 -9 6 4 8 11 5 16 -9 14 -15 11 -15 -7z"/>
<path d="M7361 1134 c0 -11 3 -14 6 -6 3 7 2 16 -1 19 -3 4 -6 -2 -5 -13z"/>
<path d="M7495 1100 c3 -5 8 -10 11 -10 2 0 4 5 4 10 0 6 -5 10 -11 10 -5 0
-7 -4 -4 -10z"/>
<path d="M7558 1050 c2 -22 6 -40 8 -40 2 0 4 18 4 40 0 22 -3 40 -8 40 -4 0
-6 -18 -4 -40z"/>
<path d="M7373 977 c4 -10 7 -23 7 -28 0 -5 7 -9 15 -9 21 0 19 14 -7 36 -20
18 -21 18 -15 1z"/>
<path d="M7492 835 c0 -16 2 -22 5 -12 2 9 2 23 0 30 -3 6 -5 -1 -5 -18z"/>
<path d="M7733 835 c-3 -9 -3 -19 1 -22 3 -4 6 1 6 11 0 10 5 14 12 10 7 -4 8
-3 4 4 -10 16 -15 15 -23 -3z"/>
<path d="M7831 860 c0 -14 6 -34 14 -44 15 -20 15 -20 15 0 -1 10 -7 30 -15
44 l-14 25 0 -25z"/>
<path d="M5435 3100 c-5 -17 14 -42 97 -128 223 -232 374 -478 470 -766 22
-67 43 -124 47 -127 3 -4 143 -10 311 -14 168 -4 334 -8 370 -10 72 -4 319
-12 590 -20 96 -3 231 -7 300 -10 69 -3 213 -7 320 -10 107 -3 210 -8 228 -11
l32 -6 0 296 0 296 -28 0 c-39 0 -52 17 -52 65 0 23 -5 46 -11 52 -8 8 -8 59
0 190 7 98 14 188 17 201 l4 22 -1344 0 -1345 0 -6 -20z m2565 -790 c0 -11 -6
-20 -14 -20 -12 0 -14 14 -7 38 1 1 6 2 11 2 6 0 10 -9 10 -20z m153 0 c4 -15
0 -20 -14 -20 -12 0 -19 7 -19 20 0 11 6 20 14 20 7 0 16 -9 19 -20z"/>
<path d="M1200 2810 c0 -5 5 -10 10 -10 6 0 10 5 10 10 0 6 -4 10 -10 10 -5 0
-10 -4 -10 -10z"/>
<path d="M40 1924 c0 -8 5 -12 10 -9 6 4 8 11 5 16 -9 14 -15 11 -15 -7z"/>
<path d="M277 1873 c-16 -16 -19 -16 -27 -3 -11 17 -13 9 -4 -14 8 -21 34 -20
50 2 26 33 11 45 -19 15z"/>
<path d="M830 1882 c0 -5 7 -15 15 -22 8 -7 15 -8 15 -2 0 5 -7 15 -15 22 -8
7 -15 8 -15 2z"/>
<path d="M1196 1881 c-3 -5 0 -14 8 -20 10 -9 15 -8 19 3 9 22 -15 37 -27 17z"/>
<path d="M1282 1878 c-15 -15 3 -38 29 -38 24 0 24 12 1 33 -14 13 -21 14 -30
5z"/>
<path d="M20 1860 c0 -15 7 -20 25 -20 14 0 25 5 25 11 0 5 -4 8 -9 5 -5 -3
-11 1 -15 9 -8 22 -26 18 -26 -5z"/>
<path d="M120 1866 c0 -8 4 -17 9 -20 5 -4 7 3 4 14 -6 23 -13 26 -13 6z"/>
<path d="M320 1871 c0 -5 5 -13 10 -16 6 -3 10 -2 10 4 0 5 -4 13 -10 16 -5 3
-10 2 -10 -4z"/>
<path d="M510 1865 c0 -8 7 -15 16 -15 8 0 13 4 10 9 -4 5 0 12 6 14 7 3 3 6
-9 6 -14 1 -23 -5 -23 -14z"/>
<path d="M660 1870 c0 -5 -8 -10 -17 -10 -15 0 -16 -2 -3 -10 22 -14 27 -12
33 10 3 11 1 20 -4 20 -5 0 -9 -4 -9 -10z"/>
<path d="M440 1850 c-24 -8 -23 -8 8 -9 20 -1 31 3 27 9 -3 6 -7 10 -8 9 -1
-1 -13 -5 -27 -9z"/>
<path d="M1565 1850 c28 -12 37 -12 30 0 -3 6 -16 10 -28 9 -21 0 -21 -1 -2
-9z"/>
<path d="M1855 1850 c-3 -5 -1 -10 4 -10 6 0 11 5 11 10 0 6 -2 10 -4 10 -3 0
-8 -4 -11 -10z"/>
<path d="M928 1843 c7 -3 16 -2 19 1 4 3 -2 6 -13 5 -11 0 -14 -3 -6 -6z"/>
<path d="M7740 1250 c1 -8 8 -26 16 -40 l15 -25 -6 30 c-7 33 -25 59 -25 35z"/>
<path d="M8036 1243 c-6 -14 -5 -15 5 -6 7 7 10 15 7 18 -3 3 -9 -2 -12 -12z"/>
<path d="M7710 1231 c0 -11 5 -23 10 -26 6 -3 10 3 10 14 0 11 -4 23 -10 26
-5 3 -10 -3 -10 -14z"/>
<path d="M7990 1241 c0 -5 5 -13 10 -16 6 -3 10 -2 10 4 0 5 -4 13 -10 16 -5
3 -10 2 -10 -4z"/>
<path d="M7890 1216 c0 -31 6 -34 13 -6 3 11 1 23 -4 26 -5 3 -9 -6 -9 -20z"/>
<path d="M7821 1214 c0 -11 3 -14 6 -6 3 7 2 16 -1 19 -3 4 -6 -2 -5 -13z"/>
<path d="M8036 1195 c4 -8 11 -15 16 -15 6 0 5 6 -2 15 -7 8 -14 15 -16 15 -2
0 -1 -7 2 -15z"/>
<path d="M7693 1148 c5 -53 1 -60 -13 -25 -8 20 -9 19 -9 -9 -1 -17 6 -37 14
-44 17 -14 21 -45 5 -35 -5 3 -10 1 -10 -4 0 -6 9 -11 21 -11 18 0 20 4 15 25
-4 14 -2 25 3 25 6 0 13 16 17 36 6 31 3 40 -21 62 l-27 27 5 -47z m37 -8 c0
-5 -2 -10 -4 -10 -3 0 -8 5 -11 10 -3 6 -1 10 4 10 6 0 11 -4 11 -10z"/>
<path d="M7980 1170 c0 -15 9 -31 21 -38 18 -12 20 -11 17 5 -2 10 -10 17 -17
15 -7 -1 -10 1 -7 6 2 4 1 14 -5 22 -7 12 -9 9 -9 -10z"/>
<path d="M8040 1135 c0 -11 -4 -26 -9 -34 -8 -13 -12 -13 -28 -1 -10 8 -7 2 7
-14 l25 -28 4 24 c1 12 8 26 13 29 7 5 7 13 -1 25 -10 18 -10 18 -11 -1z"/>
<path d="M7932 1075 c0 -16 2 -22 5 -12 2 9 2 23 0 30 -3 6 -5 -1 -5 -18z"/>
<path d="M8124 1076 c1 -8 5 -18 8 -22 4 -3 5 1 4 10 -1 8 -5 18 -8 22 -4 3
-5 -1 -4 -10z"/>
<path d="M8192 1025 c0 -16 2 -22 5 -12 2 9 2 23 0 30 -3 6 -5 -1 -5 -18z"/>
<path d="M8147 783 c-4 -3 -7 -11 -7 -17 0 -6 5 -5 12 2 6 6 9 14 7 17 -3 3
-9 2 -12 -2z"/>
<path d="M8188 760 c-4 -14 -8 -43 -8 -65 1 -32 3 -37 11 -22 5 9 9 39 7 65
-2 38 -4 42 -10 22z"/>
<path d="M8116 728 c3 -18 12 -46 19 -63 7 -16 17 -41 23 -55 7 -20 9 -9 11
53 2 75 1 78 -24 87 -37 14 -37 14 -29 -22z"/>
</g>
</svg>
