<?xml version="1.0" encoding="UTF-8" standalone="no" ?>
<!DOCTYPE svg PUBLIC "-//W3C//DTD SVG 1.1//EN" "http://www.w3.org/Graphics/SVG/1.1/DTD/svg11.dtd">
<svg xmlns="http://www.w3.org/2000/svg" xmlns:xlink="http://www.w3.org/1999/xlink" version="1.1" width="1280" height="1024" viewBox="0 0 1280 1024" xml:space="preserve">
<desc>Created with Fabric.js 3.6.3</desc>
<defs>
</defs>
<g transform="matrix(1.9662058371735787 0 0 1.9662058371735787 640.2456813819576 512.1966205837173)" id="background-logo"  >
<rect style="stroke: none; stroke-width: 1; stroke-dasharray: none; stroke-linecap: butt; stroke-dashoffset: 0; stroke-linejoin: miter; stroke-miterlimit: 4; fill: rgb(0,0,0); fill-rule: nonzero; opacity: 1;"  paint-order="stroke"  x="-325" y="-260" rx="0" ry="0" width="650" height="520" />
</g>
<g transform="matrix(2.0334314421424096 0 0 2.0334314421424096 640.2456813819576 317.36717506621994)" id="logo-logo"  >
<g style=""  paint-order="stroke"   >
		<g transform="matrix(0.31215407385776056 0 0 -0.31215407385776056 -75.65404653051115 -82.17981712919857)"  >
<linearGradient id="SVGID_17_3_3_3_3_3_190842" gradientUnits="userSpaceOnUse" gradientTransform="matrix(1 0 0 1 1083.6100000000001 5004.7699999999995)"  x1="0" y1="0" x2="0" y2="278">
<stop offset="0%" style="stop-color:rgb(180,236,81);stop-opacity: 1"/>
<stop offset="100%" style="stop-color:rgb(66,147,33);stop-opacity: 1"/>
</linearGradient>
<path style="stroke: none; stroke-width: 1; stroke-dasharray: none; stroke-linecap: butt; stroke-dashoffset: 0; stroke-linejoin: miter; stroke-miterlimit: 10; fill: url(#SVGID_17_3_3_3_3_3_190842); fill-rule: nonzero; opacity: 1;"  paint-order="stroke"  transform=" translate(-1259.92, -5143.98)" d="m 1391.02 5283.19 h -307.41 v -278.42 l 286.45 170.48 l -63.48 96.24 h 78.14 l 41.45 -62.84 l 10.06 5.98 l -45.21 68.56" stroke-linecap="round" />
</g>
		<g transform="matrix(0.32190506494273197 0 0 -0.3219050649427319 1.0056003846508474 89.70530500778597)"  >
<linearGradient id="SVGID_17_3_3_3_3_3_190843" gradientUnits="userSpaceOnUse" gradientTransform="matrix(1 0 0 1 1083.6099999999997 4527.77)"  x1="0" y1="0" x2="0" y2="278">
<stop offset="0%" style="stop-color:rgb(180,236,81);stop-opacity: 1"/>
<stop offset="100%" style="stop-color:rgb(66,147,33);stop-opacity: 1"/>
</linearGradient>
<path style="stroke: none; stroke-width: 1; stroke-dasharray: none; stroke-linecap: butt; stroke-dashoffset: 0; stroke-linejoin: miter; stroke-miterlimit: 10; fill: url(#SVGID_17_3_3_3_3_3_190843); fill-rule: nonzero; opacity: 1;"  paint-order="stroke"  transform=" translate(-1486.4599999999996, -4639.370000000001)" d="m 1219.74 4539.47 v 128.55 h 78.13 v -128.55 h -78.13 m 522.35 211.5 v 0 l -13.04 -1.51 l 138.5 -209.99 h -78.15 l -132.96 201.59 l -572.83 -66.24 v -147.05 h 225.98 v 128.54 h 234.03 l 84.77 -128.54 h 260.92 l -121.45 184.14 l -25.77 39.06" stroke-linecap="round" />
</g>
		<g transform="matrix(0.3163905369540821 0 0 -0.3163905369540821 -25.48305720867927 -13.225924228699682)"  >
<linearGradient id="SVGID_17_3_3_3_3_3_190844" gradientUnits="userSpaceOnUse" gradientTransform="matrix(1 0 0 1 1083.6099999999997 4674.82)"  x1="0" y1="0" x2="0" y2="278">
<stop offset="0%" style="stop-color:rgb(180,236,81);stop-opacity: 1"/>
<stop offset="100%" style="stop-color:rgb(66,147,33);stop-opacity: 1"/>
</linearGradient>
<path style="stroke: none; stroke-width: 1; stroke-dasharray: none; stroke-linecap: butt; stroke-dashoffset: 0; stroke-linejoin: miter; stroke-miterlimit: 10; fill: url(#SVGID_17_3_3_3_3_3_190844); fill-rule: nonzero; opacity: 1;"  paint-order="stroke"  transform=" translate(-1412.85, -4944.725)" d="m 1099.28 4911.8 l 198.59 99.29 v -99.29 h -198.59 m 270.78 263.45 l -286.45 -170.48 V 4900.1 h 225.98 v 110.99 l 138.15 -209.44 h -364.13 v -126.83 l 572.83 66.24 l -286.38 434.19 m 66.17 39.38 v 0 l -10.06 -5.98 l 302.88 -459.19 l 13.04 1.51 l -305.86 463.66" stroke-linecap="round" />
</g>
</g>
</g>
<g transform="matrix(1.9699870022450665 0 0 1.9699870022450665 640.9210740539825 690.6323807377809)" id="text-logo-path"  >
<linearGradient id="SVGID_49_7_7_190846" gradientUnits="userSpaceOnUse" gradientTransform="matrix(1 0 0 1 -1.5699999999999932 -57.25)"  x1="0" y1="0" x2="0" y2="82">
<stop offset="0%" style="stop-color:rgb(180,236,81);stop-opacity: 1"/>
<stop offset="100%" style="stop-color:rgb(66,147,33);stop-opacity: 1"/>
</linearGradient>
<filter id="SVGID_190845" y="-54.170510849137194%" height="208.3410216982744%" x="-23.51741118536757%" width="147.03482237073513%" >
	<feGaussianBlur in="SourceAlpha" stdDeviation="10"></feGaussianBlur>
	<feOffset dx="0" dy="0" result="oBlur" ></feOffset>
	<feFlood flood-color="rgb(0,0,0)" flood-opacity="1"/>
	<feComposite in2="oBlur" operator="in" />
	<feMerge>
		<feMergeNode></feMergeNode>
		<feMergeNode in="SourceGraphic"></feMergeNode>
	</feMerge>
</filter>
<path style="stroke: none; stroke-width: 1; stroke-dasharray: none; stroke-linecap: butt; stroke-dashoffset: 0; stroke-linejoin: miter; stroke-miterlimit: 10; fill: url(#SVGID_49_7_7_190846); fill-rule: nonzero; opacity: 1;filter: url(#SVGID_190845);"  paint-order="stroke"  transform=" translate(-282.73, 27.985)" d="M -1.57 -0.43 L -1.57 -0.43 Q 1.35 -10.12 3.39 -16.82 Q 5.42 -23.53 6.7 -27.84 Q 7.98 -32.15 9.23 -36.39 Q 10.48 -40.63 11.66 -44.59 Q 12.83 -48.55 13.76 -51.83 L 13.76 -51.83 Q 26.95 -52.75 33.86 -54.11 L 33.86 -54.11 Q 33.22 -47.05 32.79 -37.43 L 32.79 -37.43 Q 31.87 -18.25 31.22 -2.07 L 31.22 -2.07 Q 29.09 -1.71 27.05 -1.43 Q 25.02 -1.14 22.85 -0.78 Q 20.67 -0.43 18.89 -0.14 L 18.89 -0.14 Q 19.68 -6.99 20.25 -12.48 L 20.25 -12.48 L 13.9 -12.48 L 10.98 -2 Q 9.34 -1.78 7.16 -1.5 Q 4.99 -1.21 2.85 -0.96 Q 0.71 -0.71 -1.57 -0.43 Z M 21.81 -44.41 L 15.61 -19.75 L 20.89 -20.1 Q 20.89 -20.53 20.99 -21.56 Q 21.1 -22.6 21.24 -23.95 L 21.24 -23.95 Q 21.81 -31.58 22.46 -38.14 L 22.46 -38.14 L 22.96 -44.48 L 21.81 -44.41 Z M 47.55 -2.64 L 35.07 -1.07 L 38.42 -15.75 Q 38.42 -24.59 37.71 -35.29 Q 37 -45.98 36.86 -47.62 L 36.86 -47.62 L 36.71 -49.19 L 48.62 -53.75 L 48.62 -41.06 L 48.55 -33.93 L 48.55 -31.22 Q 50.9 -37.07 56.25 -52.9 L 56.25 -52.9 L 67.58 -50.4 Q 63.66 -42.42 60.52 -35.93 L 60.52 -35.93 L 55.96 -26.52 Q 54.61 -23.67 53.29 -20.96 Q 51.97 -18.25 50.9 -15.9 L 50.9 -15.9 Q 49.83 -10.48 47.55 -2.64 L 47.55 -2.64 Z M 54.46 -0.43 L 54.46 -0.43 Q 57.39 -10.12 59.42 -16.82 Q 61.45 -23.53 62.73 -27.84 Q 64.02 -32.15 65.27 -36.39 Q 66.51 -40.63 67.69 -44.59 Q 68.87 -48.55 69.79 -51.83 L 69.79 -51.83 Q 82.98 -52.75 89.9 -54.11 L 89.9 -54.11 Q 89.25 -47.05 88.83 -37.43 L 88.83 -37.43 Q 87.9 -18.25 87.26 -2.07 L 87.26 -2.07 Q 85.12 -1.71 83.09 -1.43 Q 81.06 -1.14 78.88 -0.78 Q 76.71 -0.43 74.92 -0.14 L 74.92 -0.14 Q 75.71 -6.99 76.28 -12.48 L 76.28 -12.48 L 69.93 -12.48 L 67.01 -2 Q 65.37 -1.78 63.2 -1.5 Q 61.02 -1.21 58.88 -0.96 Q 56.75 -0.71 54.46 -0.43 Z M 77.85 -44.41 L 71.65 -19.75 L 76.92 -20.1 Q 76.92 -20.53 77.03 -21.56 Q 77.13 -22.6 77.28 -23.95 L 77.28 -23.95 Q 77.85 -31.58 78.49 -38.14 L 78.49 -38.14 L 78.99 -44.48 L 77.85 -44.41 Z M 88.47 0.14 L 88.47 0.14 Q 90.18 -13.05 93 -27.59 Q 95.81 -42.13 97.81 -52.04 L 97.81 -52.04 L 110.64 -53.75 Q 104.01 -25.66 102.91 -19.25 Q 101.8 -12.83 101.44 -10.27 L 101.44 -10.27 Q 104.15 -10.48 109 -10.48 L 109 -10.48 Q 109.14 -7.7 109.43 -5.95 Q 109.71 -4.21 109.82 -3.39 Q 109.93 -2.57 110 -2.28 L 110 -2.28 L 107.79 -2.35 Q 100.3 -2.35 92.89 -1 L 92.89 -1 Q 90.47 -0.5 88.47 0.14 Z M 108.07 -0.43 L 108.07 -0.43 Q 111 -10.12 113.03 -16.82 Q 115.06 -23.53 116.34 -27.84 Q 117.63 -32.15 118.87 -36.39 Q 120.12 -40.63 121.3 -44.59 Q 122.47 -48.55 123.4 -51.83 L 123.4 -51.83 Q 136.59 -52.75 143.5 -54.11 L 143.5 -54.11 Q 142.86 -47.05 142.44 -37.43 L 142.44 -37.43 Q 141.51 -18.25 140.87 -2.07 L 140.87 -2.07 Q 138.73 -1.71 136.7 -1.43 Q 134.67 -1.14 132.49 -0.78 Q 130.32 -0.43 128.53 -0.14 L 128.53 -0.14 Q 129.32 -6.99 129.89 -12.48 L 129.89 -12.48 L 123.54 -12.48 L 120.62 -2 Q 118.98 -1.78 116.81 -1.5 Q 114.63 -1.21 112.49 -0.96 Q 110.36 -0.71 108.07 -0.43 Z M 131.46 -44.41 L 125.25 -19.75 L 130.53 -20.1 Q 130.53 -20.53 130.64 -21.56 Q 130.74 -22.6 130.89 -23.95 L 130.89 -23.95 Q 131.46 -31.58 132.1 -38.14 L 132.1 -38.14 L 132.6 -44.48 L 131.46 -44.41 Z M 145.86 -34.36 L 144.93 -34.29 Q 151.2 -54.68 151.99 -57.25 L 151.99 -57.25 L 157.91 -57.1 L 164.46 -57.25 Q 162.75 -52.18 161.72 -49.05 Q 160.69 -45.91 160.04 -43.99 L 160.04 -43.99 Q 158.55 -39.49 157.05 -35 L 157.05 -35 L 156.27 -34.93 Q 155.34 -34.93 154.02 -34.82 Q 152.7 -34.72 151.1 -34.65 Q 149.49 -34.58 148.14 -34.47 Q 146.78 -34.36 145.86 -34.36 L 145.86 -34.36 Z M 155.34 -6.42 L 155.34 -6.42 L 160.76 -17.04 Q 161.75 -15.04 164.61 -13.4 L 164.61 -13.4 Q 167.46 -11.69 168.88 -11.69 Q 170.31 -11.69 171.27 -11.98 Q 172.23 -12.26 173.02 -12.83 L 173.02 -12.83 Q 174.8 -14.12 174.8 -15.93 Q 174.8 -17.75 173.66 -19.25 Q 172.52 -20.75 170.84 -22.1 Q 169.17 -23.45 167.21 -24.84 Q 165.25 -26.23 163.61 -27.8 L 163.61 -27.8 Q 159.62 -31.37 159.62 -35.29 Q 159.62 -39.21 161.86 -42.49 Q 164.11 -45.77 167.49 -48.16 Q 170.88 -50.54 174.91 -51.93 Q 178.94 -53.32 181.72 -53.32 Q 184.5 -53.32 186.24 -52.83 Q 187.99 -52.33 189.27 -51.33 L 189.27 -51.33 Q 192.05 -49.05 192.05 -44.63 L 192.05 -44.63 Q 192.05 -43.56 191.87 -42.56 Q 191.7 -41.56 191.55 -40.35 L 191.55 -40.35 L 181 -37.28 Q 181.36 -38.71 181.36 -40.28 Q 181.36 -41.85 180.58 -42.81 Q 179.79 -43.77 178.9 -43.77 Q 178.01 -43.77 177.15 -43.34 Q 176.3 -42.92 175.44 -42.2 L 175.44 -42.2 Q 173.45 -40.56 173.45 -38.67 Q 173.45 -36.79 174.44 -35.61 Q 175.44 -34.43 176.9 -33.43 Q 178.37 -32.44 180.08 -31.37 Q 181.79 -30.3 183.28 -28.66 L 183.28 -28.66 Q 186.71 -24.67 186.71 -18.04 L 186.71 -18.04 Q 186.71 -10.05 180.86 -4.85 L 180.86 -4.85 Q 175.3 0.14 166.82 0.14 L 166.82 0.14 Q 160.54 0.14 155.34 -6.42 Z M 205.81 -3.99 Q 202.82 -8.41 202.82 -15.61 Q 202.82 -22.81 204.71 -29.51 Q 206.6 -36.21 210.02 -41.53 Q 213.44 -46.84 218.18 -50.12 Q 222.92 -53.4 228.55 -53.4 L 228.55 -53.4 Q 232.19 -53.4 234.75 -50.62 L 234.75 -50.62 Q 237.25 -47.76 237.25 -43.13 L 237.25 -43.13 L 237.25 -42.2 Q 237.25 -41.78 237.18 -41.28 L 237.18 -41.28 L 227.63 -38.71 Q 226.77 -40.49 225.59 -40.49 Q 224.42 -40.49 223.13 -39.14 Q 221.85 -37.78 220.6 -35.64 Q 219.36 -33.51 218.22 -30.83 Q 217.08 -28.16 216.22 -25.45 L 216.22 -25.45 Q 214.22 -19.46 214.22 -15.79 Q 214.22 -12.12 216.43 -12.12 L 216.43 -12.12 Q 218.22 -12.12 220.21 -14.33 L 220.21 -14.33 Q 222.21 -16.61 222.78 -19.03 L 222.78 -19.03 L 231.12 -15.68 Q 227.91 -8.2 222.71 -3.78 L 222.71 -3.78 Q 218.07 0.14 213.23 0.14 L 213.23 0.14 Q 208.66 0.14 205.81 -3.99 L 205.81 -3.99 Z M 231.76 -14.69 L 231.76 -14.69 Q 231.76 -22.81 235.54 -32.22 L 235.54 -32.22 Q 239.32 -41.63 245.45 -47.91 L 245.45 -47.91 Q 252.08 -54.61 259.35 -54.61 L 259.35 -54.61 Q 265.34 -54.61 268.12 -49.76 L 268.12 -49.76 Q 270.33 -45.84 270.33 -37.85 L 270.33 -37.85 Q 270.33 -33.51 269.08 -28.23 Q 267.83 -22.96 265.69 -18.54 Q 263.56 -14.12 260.74 -10.62 Q 257.92 -7.13 254.86 -4.71 L 254.86 -4.71 Q 248.51 0.29 242.67 0.29 L 242.67 0.29 Q 237.75 0.29 234.9 -3.28 L 234.9 -3.28 Q 231.76 -7.2 231.76 -14.69 Z M 242.6 -16.54 L 242.6 -16.54 Q 242.6 -13.69 245.02 -12.26 L 245.02 -12.26 Q 245.73 -11.76 246.66 -11.76 L 246.66 -11.76 Q 249.94 -11.76 252.47 -14.01 Q 255 -16.25 256.71 -19.53 Q 258.42 -22.81 259.31 -26.56 Q 260.21 -30.3 260.21 -33.36 L 260.21 -33.36 Q 260.21 -39.28 256.78 -39.28 L 256.78 -39.28 Q 252.43 -39.28 248.94 -35 L 248.94 -35 Q 246.16 -31.58 244.17 -25.66 L 244.17 -25.66 Q 242.6 -20.82 242.6 -16.54 Z M 276.6 -2.14 L 265.91 0.36 Q 273.82 -39.07 275.32 -52.9 L 275.32 -52.9 Q 277.6 -53.04 279.6 -53.22 Q 281.59 -53.4 283.59 -53.5 Q 285.58 -53.61 287.08 -53.75 L 287.08 -53.75 Q 288.01 -48.12 288.58 -44.45 Q 289.15 -40.78 289.54 -38.42 Q 289.93 -36.07 290.29 -33.86 L 290.29 -33.86 Q 291 -29.51 291.79 -26.16 L 291.79 -26.16 Q 292.07 -27.66 292.43 -29.66 Q 292.78 -31.65 293.21 -33.9 Q 293.64 -36.14 294.14 -38.46 Q 294.64 -40.78 295.39 -44.45 Q 296.13 -48.12 297.28 -53.68 L 297.28 -53.68 L 306.19 -54.75 Q 298.34 -19.18 296.49 -3.99 L 296.49 -3.99 Q 295.64 -3.99 290.61 -2.78 Q 285.58 -1.57 284.59 -1.21 L 284.59 -1.21 Q 283.8 -10.76 283.27 -15.15 Q 282.73 -19.53 282.45 -21.74 L 282.45 -21.74 Q 282.16 -24.81 281.45 -29.16 L 281.45 -29.16 Q 281.24 -27.8 280.88 -25.91 Q 280.52 -24.02 280.17 -21.81 L 280.17 -21.81 Q 279.03 -14.97 276.6 -2.14 L 276.6 -2.14 Z M 299.56 -6.42 L 299.56 -6.42 L 304.97 -17.04 Q 305.97 -15.04 308.82 -13.4 L 308.82 -13.4 Q 311.68 -11.69 313.1 -11.69 Q 314.53 -11.69 315.49 -11.98 Q 316.45 -12.26 317.24 -12.83 L 317.24 -12.83 Q 319.02 -14.12 319.02 -15.93 Q 319.02 -17.75 317.88 -19.25 Q 316.74 -20.75 315.06 -22.1 Q 313.39 -23.45 311.43 -24.84 Q 309.47 -26.23 307.83 -27.8 L 307.83 -27.8 Q 303.83 -31.37 303.83 -35.29 Q 303.83 -39.21 306.08 -42.49 Q 308.33 -45.77 311.71 -48.16 Q 315.1 -50.54 319.13 -51.93 Q 323.15 -53.32 325.93 -53.32 Q 328.71 -53.32 330.46 -52.83 Q 332.21 -52.33 333.49 -51.33 L 333.49 -51.33 Q 336.27 -49.05 336.27 -44.63 L 336.27 -44.63 Q 336.27 -43.56 336.09 -42.56 Q 335.91 -41.56 335.77 -40.35 L 335.77 -40.35 L 325.22 -37.28 Q 325.58 -38.71 325.58 -40.28 Q 325.58 -41.85 324.79 -42.81 Q 324.01 -43.77 323.12 -43.77 Q 322.23 -43.77 321.37 -43.34 Q 320.52 -42.92 319.66 -42.2 L 319.66 -42.2 Q 317.66 -40.56 317.66 -38.67 Q 317.66 -36.79 318.66 -35.61 Q 319.66 -34.43 321.12 -33.43 Q 322.58 -32.44 324.29 -31.37 Q 326 -30.3 327.5 -28.66 L 327.5 -28.66 Q 330.92 -24.67 330.92 -18.04 L 330.92 -18.04 Q 330.92 -10.05 325.08 -4.85 L 325.08 -4.85 Q 319.52 0.14 311.03 0.14 L 311.03 0.14 Q 304.76 0.14 299.56 -6.42 Z M 349.6 -2 L 336.48 0.07 Q 342.26 -27.02 344.25 -42.35 L 344.25 -42.35 Q 342.97 -42.49 341.69 -42.49 L 341.69 -42.49 L 340.83 -42.49 Q 340.62 -42.49 340.41 -42.49 L 340.41 -42.49 L 337.41 -42.92 L 337.77 -52.25 Q 341.47 -51.97 345.25 -51.97 L 345.25 -51.97 Q 355.23 -51.97 364.71 -53.18 L 364.71 -53.18 L 363.93 -49.26 Q 363.57 -47.62 363.25 -45.87 Q 362.93 -44.13 362.65 -42.84 L 362.65 -42.84 Q 361.01 -42.42 359.37 -42.24 Q 357.73 -42.06 356.16 -41.78 L 356.16 -41.78 Q 354.88 -36.29 353.59 -28.16 L 353.59 -28.16 Q 350.74 -10.19 349.6 -2 L 349.6 -2 Z M 368.49 -2.99 L 356.66 0.07 Q 364.07 -35.79 365.71 -50.83 L 365.71 -50.83 Q 373.98 -53.4 384.25 -53.4 L 384.25 -53.4 Q 391.95 -53.4 393.37 -48.05 L 393.37 -48.05 Q 393.8 -46.41 393.8 -43.99 Q 393.8 -41.56 392.8 -38.75 Q 391.8 -35.93 390.09 -33.36 L 390.09 -33.36 Q 386.53 -28.16 381.33 -25.38 L 381.33 -25.38 Q 384.11 -19.39 386.28 -14.08 Q 388.45 -8.77 389.95 -5.13 L 389.95 -5.13 L 378.62 -1.14 Q 373.13 -20.53 372.91 -23.17 L 372.91 -23.17 L 371.99 -22.88 Q 369.63 -9.77 368.49 -2.99 L 368.49 -2.99 Z M 376.19 -43.2 L 373.84 -31.58 Q 376.69 -31.87 381.04 -35.22 L 381.04 -35.22 Q 385.53 -38.64 385.53 -40.85 L 385.53 -40.85 Q 385.53 -42.92 381.61 -43.2 L 381.61 -43.2 Q 380.47 -43.27 379.33 -43.27 L 379.33 -43.27 L 376.19 -43.2 Z M 391.09 -7.63 L 391.09 -7.63 Q 391.09 -7.91 391.09 -8.2 Q 391.09 -8.48 391.27 -10.12 Q 391.45 -11.76 392.09 -16 Q 392.73 -20.25 393.48 -24.84 Q 394.23 -29.44 395.08 -34.08 Q 395.94 -38.71 396.65 -42.49 L 396.65 -42.49 Q 398.22 -50.62 398.51 -51.9 L 398.51 -51.9 Q 400.07 -52.04 402.18 -52.25 Q 404.28 -52.47 406.31 -52.65 Q 408.34 -52.83 410.55 -53.04 L 410.55 -53.04 Q 408.7 -44.27 407.63 -39.14 Q 406.56 -34 405.92 -30.94 Q 405.28 -27.87 404.78 -25.31 L 404.78 -25.31 Q 403.64 -19.89 403.28 -18.25 L 403.28 -18.25 Q 402.21 -13.33 402.21 -11.91 Q 402.21 -10.48 402.82 -9.73 Q 403.42 -8.98 404.46 -8.98 Q 405.49 -8.98 406.31 -9.98 Q 407.13 -10.98 407.67 -12.33 Q 408.2 -13.69 408.49 -15.11 Q 408.77 -16.54 409.09 -18 Q 409.41 -19.46 409.95 -22.06 Q 410.48 -24.67 411.02 -27.48 Q 411.55 -30.3 412.12 -33.22 L 412.12 -33.22 Q 413.62 -40.71 415.62 -52.18 L 415.62 -52.18 L 426.67 -52.9 L 426.31 -51.04 Q 425.45 -46.55 424.42 -40.67 Q 423.39 -34.79 422.53 -30.51 L 422.53 -30.51 Q 420.32 -19.39 419.25 -14.72 Q 418.18 -10.05 416.29 -7.13 Q 414.4 -4.21 411.91 -2.28 L 411.91 -2.28 Q 407.13 1.28 400.86 1.28 L 400.86 1.28 Q 397.01 1.28 394.23 -0.86 L 394.23 -0.86 Q 391.09 -3.42 391.09 -7.63 Z M 425.24 -3.99 Q 422.25 -8.41 422.25 -15.61 Q 422.25 -22.81 424.13 -29.51 Q 426.02 -36.21 429.45 -41.53 Q 432.87 -46.84 437.61 -50.12 Q 442.35 -53.4 447.98 -53.4 L 447.98 -53.4 Q 451.62 -53.4 454.18 -50.62 L 454.18 -50.62 Q 456.68 -47.76 456.68 -43.13 L 456.68 -43.13 L 456.68 -42.2 Q 456.68 -41.78 456.61 -41.28 L 456.61 -41.28 L 447.05 -38.71 Q 446.2 -40.49 445.02 -40.49 Q 443.85 -40.49 442.56 -39.14 Q 441.28 -37.78 440.03 -35.64 Q 438.78 -33.51 437.64 -30.83 Q 436.5 -28.16 435.65 -25.45 L 435.65 -25.45 Q 433.65 -19.46 433.65 -15.79 Q 433.65 -12.12 435.86 -12.12 L 435.86 -12.12 Q 437.64 -12.12 439.64 -14.33 L 439.64 -14.33 Q 441.64 -16.61 442.21 -19.03 L 442.21 -19.03 L 450.55 -15.68 Q 447.34 -8.2 442.13 -3.78 L 442.13 -3.78 Q 437.5 0.14 432.65 0.14 L 432.65 0.14 Q 428.09 0.14 425.24 -3.99 L 425.24 -3.99 Z M 469.3 -2 L 456.18 0.07 Q 461.95 -27.02 463.95 -42.35 L 463.95 -42.35 Q 462.67 -42.49 461.38 -42.49 L 461.38 -42.49 L 460.53 -42.49 Q 460.31 -42.49 460.1 -42.49 L 460.1 -42.49 L 457.11 -42.92 L 457.46 -52.25 Q 461.17 -51.97 464.95 -51.97 L 464.95 -51.97 Q 474.93 -51.97 484.41 -53.18 L 484.41 -53.18 L 483.63 -49.26 Q 483.27 -47.62 482.95 -45.87 Q 482.63 -44.13 482.34 -42.84 L 482.34 -42.84 Q 480.7 -42.42 479.06 -42.24 Q 477.42 -42.06 475.85 -41.78 L 475.85 -41.78 Q 474.57 -36.29 473.29 -28.16 L 473.29 -28.16 Q 470.44 -10.19 469.3 -2 L 469.3 -2 Z M 475.28 -0.07 L 475.28 -0.07 Q 477.57 -8.34 479.49 -18.11 L 479.49 -18.11 Q 483.91 -40.42 485.76 -51.11 L 485.76 -51.11 L 497.17 -52.9 Q 489.04 -11.55 487.26 -1.43 L 487.26 -1.43 Q 485.26 -1.43 480.35 -0.78 Q 475.43 -0.14 475.28 -0.07 Z M 492.61 -14.69 L 492.61 -14.69 Q 492.61 -22.81 496.39 -32.22 L 496.39 -32.22 Q 500.16 -41.63 506.29 -47.91 L 506.29 -47.91 Q 512.92 -54.61 520.2 -54.61 L 520.2 -54.61 Q 526.18 -54.61 528.96 -49.76 L 528.96 -49.76 Q 531.17 -45.84 531.17 -37.85 L 531.17 -37.85 Q 531.17 -33.51 529.93 -28.23 Q 528.68 -22.96 526.54 -18.54 Q 524.4 -14.12 521.59 -10.62 Q 518.77 -7.13 515.71 -4.71 L 515.71 -4.71 Q 509.36 0.29 503.51 0.29 L 503.51 0.29 Q 498.6 0.29 495.74 -3.28 L 495.74 -3.28 Q 492.61 -7.2 492.61 -14.69 Z M 503.44 -16.54 L 503.44 -16.54 Q 503.44 -13.69 505.87 -12.26 L 505.87 -12.26 Q 506.58 -11.76 507.51 -11.76 L 507.51 -11.76 Q 510.79 -11.76 513.32 -14.01 Q 515.85 -16.25 517.56 -19.53 Q 519.27 -22.81 520.16 -26.56 Q 521.05 -30.3 521.05 -33.36 L 521.05 -33.36 Q 521.05 -39.28 517.63 -39.28 L 517.63 -39.28 Q 513.28 -39.28 509.79 -35 L 509.79 -35 Q 507.01 -31.58 505.01 -25.66 L 505.01 -25.66 Q 503.44 -20.82 503.44 -16.54 Z M 537.45 -2.14 L 526.75 0.36 Q 534.67 -39.07 536.17 -52.9 L 536.17 -52.9 Q 538.45 -53.04 540.44 -53.22 Q 542.44 -53.4 544.43 -53.5 Q 546.43 -53.61 547.93 -53.75 L 547.93 -53.75 Q 548.85 -48.12 549.42 -44.45 Q 550 -40.78 550.39 -38.42 Q 550.78 -36.07 551.14 -33.86 L 551.14 -33.86 Q 551.85 -29.51 552.63 -26.16 L 552.63 -26.16 Q 552.92 -27.66 553.27 -29.66 Q 553.63 -31.65 554.06 -33.9 Q 554.49 -36.14 554.99 -38.46 Q 555.48 -40.78 556.23 -44.45 Q 556.98 -48.12 558.12 -53.68 L 558.12 -53.68 L 567.03 -54.75 Q 559.19 -19.18 557.34 -3.99 L 557.34 -3.99 Q 556.48 -3.99 551.46 -2.78 Q 546.43 -1.57 545.43 -1.21 L 545.43 -1.21 Q 544.65 -10.76 544.11 -15.15 Q 543.58 -19.53 543.29 -21.74 L 543.29 -21.74 Q 543.01 -24.81 542.3 -29.16 L 542.3 -29.16 Q 542.08 -27.8 541.73 -25.91 Q 541.37 -24.02 541.01 -21.81 L 541.01 -21.81 Q 539.87 -14.97 537.45 -2.14 L 537.45 -2.14 Z" stroke-linecap="round" />
</g>
<g transform="matrix(1.9699870022450665 0 0 1.9699870022450665 641.1556460812369 849.2089137982432)" id="tagline-88b67d27-2a15-4137-89f4-e03464df2eb1-logo-path"  >
<linearGradient id="SVGID_23_25_9_9_9_10_11_12_13_14_15_16_17_18_19_20_21_22_23_24_25_26_27_28_29_30_31_32_33_9_9_190848" gradientUnits="userSpaceOnUse" gradientTransform="matrix(1 0 0 1 1.009999999999998 -63.32)"  x1="0" y1="0" x2="0" y2="70">
<stop offset="0%" style="stop-color:rgb(180,236,81);stop-opacity: 1"/>
<stop offset="100%" style="stop-color:rgb(66,147,33);stop-opacity: 1"/>
</linearGradient>
<path style="stroke: none; stroke-width: 0; stroke-dasharray: none; stroke-linecap: butt; stroke-dashoffset: 0; stroke-linejoin: miter; stroke-miterlimit: 4; fill: url(#SVGID_23_25_9_9_9_10_11_12_13_14_15_16_17_18_19_20_21_22_23_24_25_26_27_28_29_30_31_32_33_9_9_190848); fill-rule: nonzero; opacity: 1;"  paint-order="stroke"  transform=" translate(-51.60999999999999, 30.65)" d="M 1.01 0.17 L 1.01 0.17 Q 3.02 -15.37 6.34 -32.5 Q 9.66 -49.63 12.01 -61.31 L 12.01 -61.31 L 27.13 -63.32 Q 19.32 -30.23 18.01 -22.68 Q 16.71 -15.12 16.29 -12.09 L 16.29 -12.09 Q 19.48 -12.35 25.2 -12.35 L 25.2 -12.35 Q 25.36 -9.07 25.7 -7.01 Q 26.04 -4.96 26.16 -3.99 Q 26.29 -3.02 26.37 -2.69 L 26.37 -2.69 L 23.77 -2.77 Q 14.95 -2.77 6.21 -1.18 L 6.21 -1.18 Q 3.36 -0.59 1.01 0.17 Z M 26.46 0.17 L 26.46 0.17 Q 28.47 -15.37 31.79 -32.5 Q 35.11 -49.63 37.46 -61.31 L 37.46 -61.31 L 52.57 -63.32 Q 44.76 -30.23 43.46 -22.68 Q 42.16 -15.12 41.74 -12.09 L 41.74 -12.09 Q 44.93 -12.35 50.64 -12.35 L 50.64 -12.35 Q 50.81 -9.07 51.15 -7.01 Q 51.48 -4.96 51.61 -3.99 Q 51.73 -3.02 51.82 -2.69 L 51.82 -2.69 L 49.21 -2.77 Q 40.4 -2.77 31.66 -1.18 L 31.66 -1.18 Q 28.81 -0.59 26.46 0.17 Z M 55.6 -4.7 Q 52.07 -9.91 52.07 -18.39 Q 52.07 -26.88 54.3 -34.77 Q 56.52 -42.66 60.55 -48.92 Q 64.58 -55.18 70.17 -59.04 Q 75.75 -62.9 82.39 -62.9 L 82.39 -62.9 Q 86.67 -62.9 89.7 -59.63 L 89.7 -59.63 Q 92.63 -56.27 92.63 -50.81 L 92.63 -50.81 L 92.63 -49.72 Q 92.63 -49.21 92.55 -48.63 L 92.55 -48.63 L 81.3 -45.6 Q 80.29 -47.7 78.9 -47.7 Q 77.52 -47.7 76.01 -46.11 Q 74.49 -44.51 73.02 -41.99 Q 71.55 -39.47 70.21 -36.32 Q 68.87 -33.17 67.86 -29.98 L 67.86 -29.98 Q 65.51 -22.93 65.51 -18.6 Q 65.51 -14.28 68.11 -14.28 L 68.11 -14.28 Q 70.21 -14.28 72.56 -16.88 L 72.56 -16.88 Q 74.91 -19.57 75.59 -22.42 L 75.59 -22.42 L 85.41 -18.48 Q 81.63 -9.66 75.5 -4.45 L 75.5 -4.45 Q 70.04 0.17 64.33 0.17 L 64.33 0.17 Q 58.96 0.17 55.6 -4.7 L 55.6 -4.7 Z M 83.65 -6.13 L 83.65 -6.13 Q 83.65 -11.59 88.44 -13.86 L 88.44 -13.86 Q 90.03 -14.61 92.21 -14.61 L 92.21 -14.61 Q 97.25 -14.61 99.73 -12.26 Q 102.21 -9.91 102.21 -6.89 L 102.21 -6.89 Q 102.21 -3.28 99.44 -0.76 L 99.44 -0.76 Q 96.33 2.02 91.63 2.02 L 91.63 2.02 Q 89.36 2.02 87.93 1.3 Q 86.5 0.59 85.58 -0.5 L 85.58 -0.5 Q 83.65 -2.94 83.65 -6.13 Z" stroke-linecap="round" />
</g>
</svg>